# Blender v2.78 (sub 0) OBJ File: 'Powerup.blend'
# www.blender.org
mtllib Powerup.mtl
o Cylinder
v -0.137618 0.241001 -1.120749
v -0.000000 2.128688 0.158908
v -0.901788 0.241001 0.679555
v -0.137618 2.128688 -0.079454
v -1.039406 0.241001 0.441193
v 1.039406 0.241001 0.441194
v 0.137618 2.128688 -0.079454
v -1.292156 0.000000 0.746026
v 0.137618 0.241001 -1.120749
v 0.000000 0.000000 -1.492053
v 1.292156 0.000000 0.746027
v -0.000000 2.704834 0.000000
v -0.000000 1.691796 0.103741
v -0.588719 0.459448 0.443638
v -0.089842 1.691796 -0.051870
v -0.678561 0.459448 0.288026
v -0.089842 0.459448 -0.731664
v 0.089842 0.459448 -0.731664
v 0.678561 0.459448 0.288027
v 0.089842 1.691796 -0.051870
v 0.901788 0.241001 0.679555
v 0.588719 0.459448 0.443638
vt 0.3371 0.4795
vt 0.0000 0.6741
vt 0.3371 0.8687
vt 0.7684 0.3515
vt 0.7232 0.2922
vt 0.5485 0.2044
vt 0.4650 0.2042
vt 0.3357 0.0601
vt 0.3020 0.1300
vt 0.2985 0.3213
vt 0.3342 0.3967
vt 0.0000 0.1754
vt 0.0719 0.1848
vt 0.3735 0.0000
vt 0.3735 0.4795
vt 0.1448 0.2004
vt 0.8075 0.4126
vt 0.3735 0.6164
vt 0.4650 0.6168
vt 0.7691 0.4723
vt 0.8075 0.8252
vt 0.7684 0.7641
vt 0.3735 0.2038
vt 0.7691 0.0597
vt 0.8075 0.0000
vt 0.8075 0.4126
vt 0.5485 0.6171
vt 0.7201 0.5326
vt 0.7201 0.1199
vt 0.7232 0.7048
vt 1.0000 0.1773
vt 1.0000 0.0000
vt 0.8075 0.0887
vt 0.9685 0.3893
vt 0.8075 0.5271
vt 0.9685 0.6013
vt 0.9685 0.1773
vt 0.8075 0.2515
vt 0.9685 0.3893
vn 0.0000 -1.0000 0.0000
vn 0.3390 -0.0962 -0.9359
vn 0.6410 -0.0962 0.7615
vn -0.0000 0.2659 0.9640
vn -0.6410 -0.0962 0.7615
vn -0.8349 0.2659 -0.4820
vn 0.8349 0.2659 -0.4820
vn -0.0000 0.7338 0.6794
vn -0.3390 -0.0962 -0.9359
vn 0.5884 0.7338 -0.3397
vn -0.5884 0.7338 -0.3397
vn -0.9800 -0.0962 0.1743
vn 0.9800 -0.0962 0.1743
usemtl Material.001
s off
f 10/1/1 11/2/1 8/3/1
f 6/4/2 19/5/2 20/6/2 7/7/2
f 3/8/3 14/9/3 13/10/3 2/11/3
f 11/12/4 21/13/4 3/8/4 8/14/4
f 8/14/4 3/8/4 2/11/4 12/15/4
f 21/13/5 2/11/5 13/10/5 22/16/5
f 8/17/6 12/18/6 4/19/6 5/20/6
f 12/18/6 10/21/6 1/22/6 4/19/6
f 10/21/6 8/17/6 5/20/6 1/22/6
f 12/23/7 7/7/7 9/24/7 10/25/7
f 11/26/7 6/4/7 7/7/7 12/23/7
f 11/26/7 10/25/7 9/24/7 6/4/7
f 14/9/8 3/8/8 21/13/8 22/16/8
f 5/20/9 4/19/9 15/27/9 16/28/9
f 6/4/10 9/24/10 18/29/10 19/5/10
f 11/12/4 12/15/4 2/11/4 21/13/4
f 1/22/11 5/20/11 16/28/11 17/30/11
f 4/19/12 1/22/12 17/30/12 15/27/12
f 7/7/13 20/6/13 18/29/13 9/24/13
usemtl Material.002
f 14/31/4 22/32/4 13/33/4
f 15/34/6 17/35/6 16/36/6
f 19/37/7 18/38/7 20/39/7
